<?xml version="1.0" encoding="UTF-8" standalone="no"?>
<!-- Created with Inkscape (http://www.inkscape.org/) -->

<svg
   width="293.36902mm"
   height="195.04796mm"
   viewBox="0 0 1108.7963 737.18916"
   version="1.1"
   id="svg1"
   xml:space="preserve"
   inkscape:version="1.3.2 (091e20e, 2023-11-25)"
   sodipodi:docname="carnot_cycle.svg"
   xmlns:inkscape="http://www.inkscape.org/namespaces/inkscape"
   xmlns:sodipodi="http://sodipodi.sourceforge.net/DTD/sodipodi-0.dtd"
   xmlns="http://www.w3.org/2000/svg"
   xmlns:svg="http://www.w3.org/2000/svg"><sodipodi:namedview
     id="namedview1"
     pagecolor="#ffffff"
     bordercolor="#000000"
     borderopacity="0.25"
     inkscape:showpageshadow="2"
     inkscape:pageopacity="0.0"
     inkscape:pagecheckerboard="0"
     inkscape:deskcolor="#d1d1d1"
     inkscape:document-units="mm"
     inkscape:zoom="0.54362802"
     inkscape:cx="574.8416"
     inkscape:cy="201.4245"
     inkscape:window-width="1920"
     inkscape:window-height="942"
     inkscape:window-x="0"
     inkscape:window-y="25"
     inkscape:window-maximized="1"
     inkscape:current-layer="layer1" /><defs
     id="defs1"><rect
       x="478.66425"
       y="370.05429"
       width="61.784107"
       height="33.168312"
       id="rect33" /><marker
       style="overflow:visible"
       id="Triangle"
       refX="0"
       refY="0"
       orient="auto-start-reverse"
       inkscape:stockid="Triangle arrow"
       markerWidth="1"
       markerHeight="1"
       viewBox="0 0 1 1"
       inkscape:isstock="true"
       inkscape:collect="always"
       preserveAspectRatio="xMidYMid"><path
         transform="scale(0.5)"
         style="fill:context-stroke;fill-rule:evenodd;stroke:context-stroke;stroke-width:1pt"
         d="M 5.77,0 -2.88,5 V -5 Z"
         id="path135" /></marker><inkscape:path-effect
       effect="bspline"
       id="path-effect30"
       is_visible="true"
       lpeversion="1.3"
       weight="33.333333"
       steps="2"
       helper_size="0"
       apply_no_weight="true"
       apply_with_weight="true"
       only_selected="false"
       uniform="false" /><inkscape:path-effect
       effect="bspline"
       id="path-effect29"
       is_visible="true"
       lpeversion="1.3"
       weight="33.333333"
       steps="2"
       helper_size="0"
       apply_no_weight="true"
       apply_with_weight="true"
       only_selected="false"
       uniform="false" /><inkscape:path-effect
       effect="bspline"
       id="path-effect28"
       is_visible="true"
       lpeversion="1.3"
       weight="33.333333"
       steps="2"
       helper_size="0"
       apply_no_weight="true"
       apply_with_weight="true"
       only_selected="false"
       uniform="false" /><inkscape:path-effect
       effect="bspline"
       id="path-effect27"
       is_visible="true"
       lpeversion="1.3"
       weight="33.333333"
       steps="2"
       helper_size="0"
       apply_no_weight="true"
       apply_with_weight="true"
       only_selected="false"
       uniform="false" /><inkscape:path-effect
       effect="bspline"
       id="path-effect26"
       is_visible="true"
       lpeversion="1.3"
       weight="33.333333"
       steps="2"
       helper_size="0"
       apply_no_weight="true"
       apply_with_weight="true"
       only_selected="false"
       uniform="false" /><inkscape:path-effect
       effect="spiro"
       id="path-effect24"
       is_visible="true"
       lpeversion="1" /><inkscape:path-effect
       effect="spiro"
       id="path-effect23"
       is_visible="true"
       lpeversion="1" /><inkscape:path-effect
       effect="spiro"
       id="path-effect22"
       is_visible="true"
       lpeversion="1" /><inkscape:path-effect
       effect="spiro"
       id="path-effect20"
       is_visible="true"
       lpeversion="1" /><inkscape:path-effect
       effect="spiro"
       id="path-effect18"
       is_visible="true"
       lpeversion="1" /><inkscape:path-effect
       effect="spiro"
       id="path-effect17"
       is_visible="true"
       lpeversion="1" /><inkscape:path-effect
       effect="spiro"
       id="path-effect2"
       is_visible="true"
       lpeversion="1" /><inkscape:path-effect
       effect="spiro"
       id="path-effect1"
       is_visible="true"
       lpeversion="1" /><inkscape:path-effect
       effect="spiro"
       id="path-effect2-5"
       is_visible="true"
       lpeversion="1" /><inkscape:path-effect
       effect="spiro"
       id="path-effect2-0"
       is_visible="true"
       lpeversion="1" /><inkscape:path-effect
       effect="spiro"
       id="path-effect1-3"
       is_visible="true"
       lpeversion="1" /><inkscape:path-effect
       effect="spiro"
       id="path-effect1-3-7"
       is_visible="true"
       lpeversion="1" /><marker
       style="overflow:visible"
       id="Triangle-5"
       refX="0"
       refY="0"
       orient="auto-start-reverse"
       inkscape:stockid="Triangle arrow"
       markerWidth="0.80000001"
       markerHeight="0.80000001"
       viewBox="0 0 1 1"
       inkscape:isstock="true"
       inkscape:collect="always"
       preserveAspectRatio="xMidYMid"><path
         transform="scale(0.5)"
         style="fill:context-stroke;fill-rule:evenodd;stroke:context-stroke;stroke-width:1pt"
         d="M 5.77,0 -2.88,5 V -5 Z"
         id="path135-9" /></marker><inkscape:path-effect
       effect="bspline"
       id="path-effect26-5"
       is_visible="true"
       lpeversion="1.3"
       weight="33.333333"
       steps="2"
       helper_size="0"
       apply_no_weight="true"
       apply_with_weight="true"
       only_selected="false"
       uniform="false" /><marker
       style="overflow:visible"
       id="Triangle-5-4"
       refX="0"
       refY="0"
       orient="auto-start-reverse"
       inkscape:stockid="Triangle arrow"
       markerWidth="0.80000001"
       markerHeight="0.80000001"
       viewBox="0 0 1 1"
       inkscape:isstock="true"
       inkscape:collect="always"
       preserveAspectRatio="xMidYMid"><path
         transform="scale(0.5)"
         style="fill:context-stroke;fill-rule:evenodd;stroke:context-stroke;stroke-width:1pt"
         d="M 5.77,0 -2.88,5 V -5 Z"
         id="path135-9-1" /></marker><inkscape:path-effect
       effect="bspline"
       id="path-effect26-5-8"
       is_visible="true"
       lpeversion="1.3"
       weight="33.333333"
       steps="2"
       helper_size="0"
       apply_no_weight="true"
       apply_with_weight="true"
       only_selected="false"
       uniform="false" /><marker
       style="overflow:visible"
       id="Triangle-5-4-2"
       refX="0"
       refY="0"
       orient="auto-start-reverse"
       inkscape:stockid="Triangle arrow"
       markerWidth="0.80000001"
       markerHeight="0.80000001"
       viewBox="0 0 1 1"
       inkscape:isstock="true"
       inkscape:collect="always"
       preserveAspectRatio="xMidYMid"><path
         transform="scale(0.5)"
         style="fill:context-stroke;fill-rule:evenodd;stroke:context-stroke;stroke-width:1pt"
         d="M 5.77,0 -2.88,5 V -5 Z"
         id="path135-9-1-6" /></marker><inkscape:path-effect
       effect="bspline"
       id="path-effect26-5-8-6"
       is_visible="true"
       lpeversion="1.3"
       weight="33.333333"
       steps="2"
       helper_size="0"
       apply_no_weight="true"
       apply_with_weight="true"
       only_selected="false"
       uniform="false" /><marker
       style="overflow:visible"
       id="Triangle-5-4-2-7"
       refX="0"
       refY="0"
       orient="auto-start-reverse"
       inkscape:stockid="Triangle arrow"
       markerWidth="0.80000001"
       markerHeight="0.80000001"
       viewBox="0 0 1 1"
       inkscape:isstock="true"
       inkscape:collect="always"
       preserveAspectRatio="xMidYMid"><path
         transform="scale(0.5)"
         style="fill:context-stroke;fill-rule:evenodd;stroke:context-stroke;stroke-width:1pt"
         d="M 5.77,0 -2.88,5 V -5 Z"
         id="path135-9-1-6-1" /></marker><inkscape:path-effect
       effect="bspline"
       id="path-effect26-5-8-6-8"
       is_visible="true"
       lpeversion="1.3"
       weight="33.333333"
       steps="2"
       helper_size="0"
       apply_no_weight="true"
       apply_with_weight="true"
       only_selected="false"
       uniform="false" /><marker
       style="overflow:visible"
       id="Triangle-5-7"
       refX="0"
       refY="0"
       orient="auto-start-reverse"
       inkscape:stockid="Triangle arrow"
       markerWidth="0.80000001"
       markerHeight="0.80000001"
       viewBox="0 0 1 1"
       inkscape:isstock="true"
       inkscape:collect="always"
       preserveAspectRatio="xMidYMid"><path
         transform="scale(0.5)"
         style="fill:context-stroke;fill-rule:evenodd;stroke:context-stroke;stroke-width:1pt"
         d="M 5.77,0 -2.88,5 V -5 Z"
         id="path135-9-8" /></marker><inkscape:path-effect
       effect="bspline"
       id="path-effect26-5-7"
       is_visible="true"
       lpeversion="1.3"
       weight="33.333333"
       steps="2"
       helper_size="0"
       apply_no_weight="true"
       apply_with_weight="true"
       only_selected="false"
       uniform="false" /><marker
       style="overflow:visible"
       id="Triangle-5-4-7"
       refX="0"
       refY="0"
       orient="auto-start-reverse"
       inkscape:stockid="Triangle arrow"
       markerWidth="0.80000001"
       markerHeight="0.80000001"
       viewBox="0 0 1 1"
       inkscape:isstock="true"
       inkscape:collect="always"
       preserveAspectRatio="xMidYMid"><path
         transform="scale(0.5)"
         style="fill:context-stroke;fill-rule:evenodd;stroke:context-stroke;stroke-width:1pt"
         d="M 5.77,0 -2.88,5 V -5 Z"
         id="path135-9-1-4" /></marker><inkscape:path-effect
       effect="bspline"
       id="path-effect26-5-8-4"
       is_visible="true"
       lpeversion="1.3"
       weight="33.333333"
       steps="2"
       helper_size="0"
       apply_no_weight="true"
       apply_with_weight="true"
       only_selected="false"
       uniform="false" /><rect
       x="478.66425"
       y="370.05429"
       width="61.784107"
       height="33.168312"
       id="rect33-2" /><rect
       x="478.66425"
       y="370.05429"
       width="61.784107"
       height="33.168312"
       id="rect33-2-8" /><rect
       x="478.66425"
       y="370.05429"
       width="61.784107"
       height="33.168312"
       id="rect33-2-8-5" /><rect
       x="478.66425"
       y="370.05429"
       width="164.03333"
       height="45.815353"
       id="rect33-0" /><rect
       x="478.66425"
       y="370.05429"
       width="164.03333"
       height="45.815353"
       id="rect33-0-7" /><rect
       x="478.66425"
       y="370.05429"
       width="344.76968"
       height="71.482056"
       id="rect33-0-7-5" /></defs><g
     inkscape:label="Layer 1"
     inkscape:groupmode="layer"
     id="layer1"
     transform="translate(-7.219748,-24.063281)"><rect
       style="opacity:0.322807;fill:#adcae8;fill-opacity:1;stroke:none;stroke-width:9.29081;stroke-linejoin:round;stroke-opacity:1"
       id="rect23"
       width="1106.4117"
       height="735.93329"
       x="8.3485365"
       y="24.06328" /><rect
       style="opacity:0.726316;fill:#6876cf;fill-opacity:1;stroke:none;stroke-width:9.29627;stroke-linejoin:round;stroke-opacity:1"
       id="rect24"
       width="1107.7124"
       height="187.12297"
       x="8.3036795"
       y="574.12946" /><path
       style="opacity:0.73684211;fill:#ed6767;fill-opacity:1;stroke:none;stroke-width:0.275906;stroke-linejoin:round;stroke-dasharray:none;stroke-opacity:1"
       d="m 119.66606,381.1104 c 9.49784,6.09052 19.80603,10.91563 30.56688,14.3079 27.3206,8.61259 56.55826,7.81244 85.19704,8.45467 19.26767,0.43208 38.55639,1.55366 57.79662,0.43868 19.24023,-1.11498 38.59601,-4.55135 56.01621,-12.7955 7.70267,-3.64531 15.0494,-8.27182 20.88458,-14.4823 5.83517,-6.21048 10.09217,-14.11316 10.98301,-22.58817 1.10379,-10.50086 -3.29648,-21.42738 -11.36967,-28.23254 -18.64303,-0.19223 -37.28688,-0.3045 -55.93088,-0.33679 -64.72249,-0.1121 -129.44666,0.73969 -194.14379,2.55497 z"
       id="path24"
       inkscape:path-effect="#path-effect24"
       inkscape:original-d="m 119.66606,381.1104 c 1.73429,17.5597 19.71959,11.32506 30.56688,14.3079 27.51709,7.56678 56.65884,8.58645 85.19704,8.45467 38.16015,-0.17621 80.04314,5.41496 113.81283,-12.35682 14.42011,-7.58879 29.2134,-20.99302 31.86759,-37.07047 1.6525,-10.00982 0.75206,-19.9591 -11.36967,-28.23254 -13.42245,-0.46913 -37.93761,-0.77037 -55.93088,-0.33679 -17.99326,0.43357 -162.13261,-11.18067 -194.14379,2.55497 -5.34646,36.49821 0.86715,35.11939 0,52.67908 z"
       sodipodi:nodetypes="caaaacscc"
       transform="matrix(1.931024,0,0,1.931024,-222.7295,-55.055828)" /><path
       style="fill:#f2f2f2;fill-opacity:1;stroke:#333333;stroke-width:0.275906;stroke-linejoin:round;stroke-dasharray:none;stroke-opacity:1"
       d="m 123.56822,360.29891 c 5.06528,1.78593 10.29881,3.09431 15.60861,3.90215 8.59223,1.30723 17.32326,1.30038 26.01436,1.30072 32.09714,0.001 64.22412,0.1388 96.25315,-1.95107 22.97407,-1.49904 46.09087,-4.13993 68.93806,-1.30072 2.63102,0.32696 5.3013,0.72606 7.91884,0.30458 1.30877,-0.21074 2.59391,-0.63094 3.72058,-1.32944 1.12667,-0.69851 2.09024,-1.68442 2.66848,-2.87729 0.54047,-1.11495 0.73172,-2.38702 0.60496,-3.61956 -0.12675,-1.23254 -0.565,-2.42478 -1.21347,-3.48057 -1.29696,-2.11158 -3.38931,-3.63606 -5.63143,-4.69142 -4.48424,-2.11073 -9.68603,-2.5435 -13.92119,-5.11779 -3.45914,-2.1026 -5.99184,-5.49615 -7.67714,-9.17669 -1.68529,-3.68054 -2.58942,-7.66451 -3.37897,-11.6348 -5.60347,-28.17743 -5.95931,-57.15266 -4.55251,-85.84739 0.11947,-2.43684 0.25666,-4.9029 0.98297,-7.23205 0.72631,-2.32915 2.11394,-4.54331 4.2199,-5.77513 1.18892,-0.69543 2.55441,-1.04949 3.9251,-1.18499 1.37069,-0.1355 2.75333,-0.06 4.12578,0.0564 2.74489,0.23273 5.56996,0.62085 8.2081,-0.17214 2.88346,-0.86673 5.16239,-3.0274 7.37703,-5.06723 1.10732,-1.01992 2.23151,-2.03013 3.47816,-2.87409 1.24664,-0.84396 2.62632,-1.52142 4.10306,-1.81407 1.9883,-0.39402 4.05709,-0.0738 5.99876,0.50803 1.94167,0.58181 3.79593,1.41984 5.70771,2.09341 10.22346,3.602 21.64561,2.30548 31.86759,-1.30073 3.49372,-1.23255 6.89308,-2.72466 10.40574,-3.90215 6.7086,-2.24882 13.75955,-3.32539 20.81149,-3.90215 5.04191,-0.41236 10.11386,-0.57549 15.108,-1.38135 4.99415,-0.80586 9.96509,-2.29221 14.15816,-5.12224 2.63377,-1.77762 4.89683,-4.03918 7.23822,-6.18733 2.3414,-2.14815 4.81914,-4.22243 7.72004,-5.51914 4.50418,-2.01337 9.64842,-1.98797 14.55188,-1.44266 4.90346,0.54532 9.78235,1.57471 14.71427,1.44266 5.40753,-0.14478 10.67852,-1.68215 15.78851,-3.45708 5.10999,-1.77492 10.1523,-3.80524 15.42873,-4.99758 3.00007,-0.67794 6.05746,-1.08037 9.05489,-1.76985 2.99744,-0.68949 5.97267,-1.68709 8.5048,-3.43303 3.06272,-2.11179 5.29979,-5.18401 7.67293,-8.04898 2.37314,-2.86498 5.0785,-5.66951 8.58605,-6.90927 2.9805,-1.05347 6.28144,-0.86536 9.34619,-0.0905 3.06475,0.77491 5.95363,2.10785 8.86386,3.34224 8.73803,3.70629 17.93867,6.59829 27.41295,7.1707 9.47429,0.57242 19.2834,-1.31031 27.21721,-6.52034 2.71878,-1.78539 5.18136,-3.92984 7.80432,-5.85323 11.13674,-8.16645 25.25622,-12.16697 39.02154,-11.05611 -3.03925,-3.80941 -7.13468,-6.76722 -11.70646,-8.45466 -8.02263,-2.96115 -16.91197,-1.95025 -25.36401,-3.2518 -9.16319,-1.41106 -17.67939,-5.51984 -26.66473,-7.80431 -16.89341,-4.29506 -34.65034,-2.00191 -52.02872,-0.65036 -12.55557,0.97647 -25.21041,1.44412 -37.72082,0 -7.3591,-0.84949 -14.78024,-2.35914 -22.11221,-1.30071 -3.07295,0.44361 -6.06258,1.33194 -9.10503,1.95107 -10.43982,2.12447 -21.22102,1.0425 -31.86759,0.65036 -23.40048,-0.86189 -46.82242,0.65036 -70.23877,0.65036 h -34.46903 c -6.0656,0 -12.15322,-0.32423 -18.08863,-1.57421 -5.93541,-1.24997 -11.70192,-3.25886 -17.68112,-4.27902 -15.83557,-2.70185 -31.82932,2.21454 -47.47621,5.85323 -13.12955,3.05328 -26.56109,5.2633 -39.02154,10.40575 -8.6106,3.55361 -16.68856,8.51207 -23.41294,14.95825 -2.58703,2.48 -5.09469,5.25709 -8.45466,6.50359 -1.8514,0.68684 -3.86796,0.86042 -5.83526,0.68964 -1.9673,-0.17079 -3.89245,-0.67706 -5.76135,-1.31476 -3.7378,-1.2754 -7.30706,-3.08674 -11.16596,-3.92739 -6.83682,-1.48938 -13.90446,0.18123 -20.81149,1.30072 -6.88213,1.11545 -13.84472,1.68257 -20.81149,1.95108 -6.28369,0.24218 -12.57672,0.24218 -18.86041,0 l -0.4466,106.68789 0.44664,96.22413 z"
       id="path22"
       inkscape:path-effect="#path-effect22"
       inkscape:original-d="m 123.56822,360.29891 c 31.21723,17.12612 8.45467,1.5175 15.60861,3.90215 7.15395,2.38465 20.81149,1.51751 26.01436,1.30072 5.20288,-0.21678 64.60234,-1.5175 96.25315,-1.95107 31.65081,-0.43357 41.40619,-1.08394 68.93806,-1.30072 27.53186,-0.21679 13.65754,-2.16786 14.3079,-3.90215 0.65035,-1.7343 -13.65754,-11.70647 -20.16113,-16.90934 -6.50359,-5.20287 -7.15395,-13.65754 -11.05611,-20.81149 -3.90215,-7.15395 -2.60143,-57.23159 -4.55251,-85.84739 -1.95108,-28.61581 2.60144,-8.45467 5.20287,-13.00718 2.60144,-4.55251 11.27289,-0.86715 16.25898,-1.30072 4.98608,-0.43357 10.18896,-6.50359 14.95825,-9.75539 4.7693,-3.2518 7.80431,1.73429 11.70647,2.60144 3.90215,0.86715 21.46185,-0.86715 31.86759,-1.30073 10.40574,-0.43357 6.93716,-3.03501 10.40574,-3.90215 3.46859,-0.86715 13.44076,-1.95108 20.81149,-3.90215 7.37074,-1.95108 19.72756,-4.55252 29.26616,-6.50359 9.5386,-1.95108 9.75539,-7.80431 14.95826,-11.70647 5.20287,-3.90215 19.72755,0 29.26615,0 9.5386,0 20.81149,-5.63644 31.21724,-8.45466 10.40574,-2.81823 11.92325,-3.68537 17.55969,-5.20288 5.63645,-1.5175 10.40575,-9.75538 16.25898,-14.95825 5.85323,-5.20288 12.14003,2.16786 18.21005,3.25179 6.07002,1.08393 36.85368,0.43357 54.63016,0.65036 17.77649,0.21679 4.7693,-3.90215 7.80432,-5.85323 3.03501,-1.95108 39.02154,-11.05611 39.02154,-11.05611 0,0 -8.45467,-5.63644 -11.70646,-8.45466 -3.2518,-2.81823 -16.69255,-2.16787 -25.36401,-3.2518 -8.67146,-1.08393 -17.5597,-4.98608 -26.66473,-7.80431 -9.10502,-2.81822 -34.68581,-1.08393 -52.02872,-0.65036 -17.34291,0.43358 -25.58079,0.86715 -37.72082,0 -12.14004,-0.86714 -14.74147,-1.08393 -22.11221,-1.30071 -7.37074,-0.21679 -6.07002,1.08393 -9.10503,1.95107 -3.03501,0.86715 -21.24506,0.21679 -31.86759,0.65036 -10.62253,0.43358 -46.39228,0.65036 -70.23877,0.65036 h -34.46903 c -11.05611,0 -23.41293,-3.90215 -35.76975,-5.85323 -12.35682,-1.95108 -31.65081,3.90215 -47.47621,5.85323 -15.8254,1.95108 -26.44793,7.37074 -39.02154,10.40575 -12.57361,3.03501 -15.39183,9.32181 -23.41294,14.95825 -8.02109,5.63645 -5.41965,4.55252 -8.45466,6.50359 -3.03501,1.95108 -15.17505,-3.035 -22.76257,-4.55251 -7.58752,-1.5175 -13.87432,0.86715 -20.81149,1.30072 -6.93716,0.43357 -10.18726,-33.54774 -20.81149,1.95108 -10.00432,33.42754 14.79968,5.08833 -18.86041,0 0.72966,17.61696 3.66364,73.8448 -0.4466,106.68789 2.39333,35.44454 -0.20372,62.29707 0.44664,96.22413 z"
       sodipodi:nodetypes="csssssssssssssssssssssssscsssssssssssssssssscccc"
       transform="matrix(1.931024,0,0,1.931024,-222.7295,-55.055828)" /><path
       style="opacity:0.975439;fill:none;fill-opacity:1;stroke:#4b4b4b;stroke-width:4.58835;stroke-linecap:butt;stroke-linejoin:round;stroke-dasharray:none;stroke-opacity:0.996078;marker-mid:url(#Triangle-5);marker-end:url(#Triangle);paint-order:markers stroke fill"
       d="m 163.71489,358.00459 c 0,-38.09058 0,-76.18116 11.19047,-108.86963 11.19047,-32.68847 33.57053,-59.97375 61.31656,-78.21548 27.74602,-18.24174 60.85623,-27.43902 96.11356,-32.19104 35.25732,-4.75203 72.6596,-5.05861 119.56724,-5.2119 46.90764,-0.15329 103.31763,-0.15329 159.72875,-0.15329"
       id="path26"
       inkscape:path-effect="#path-effect27"
       inkscape:original-d="m 163.71489,358.00459 c 0,-38.09058 0,-76.18116 0,-114.27174 22.38094,-27.28636 44.761,-54.57164 67.14151,-81.85746 33.11154,-9.19764 66.22175,-18.39493 99.33263,-27.59239 37.40377,-0.30659 74.80605,-0.61317 112.20908,-0.91975 56.41225,0 112.82224,0 169.23336,0"
       sodipodi:nodetypes="cccccc"
       transform="matrix(1.931024,0,0,1.931024,-222.7295,-55.055828)" /><path
       style="opacity:0.975439;fill:none;fill-opacity:1;stroke:#4b4b4b;stroke-width:4.58835;stroke-linecap:butt;stroke-linejoin:round;stroke-dasharray:none;stroke-opacity:0.996078;marker-end:url(#Triangle-5-4);paint-order:markers stroke fill"
       d="m 609.79198,150.83844 c 0,7.20468 0,14.40936 0,21.61404"
       id="path27"
       inkscape:path-effect="#path-effect28"
       inkscape:original-d="m 609.79198,150.83844 c 0,7.20468 0,14.40936 0,21.61404"
       sodipodi:nodetypes="cc"
       transform="matrix(1.931024,0,0,1.931024,-222.7295,-55.055828)" /><path
       style="opacity:0.975439;fill:none;fill-opacity:1;stroke:#4b4b4b;stroke-width:4.58835;stroke-linecap:butt;stroke-linejoin:round;stroke-dasharray:none;stroke-opacity:0.996078;marker-mid:url(#Triangle-5-4);marker-end:url(#Triangle-5-4);paint-order:markers stroke fill"
       d="m 600.59451,180.27033 c -26.05948,19.92784 -52.11897,39.85569 -72.35354,68.82808 -20.23456,28.9724 -34.64363,66.98783 -49.053,105.00403"
       id="path28"
       inkscape:path-effect="#path-effect29"
       inkscape:original-d="m 600.59451,180.27033 c -26.05948,19.92784 -52.11897,39.85569 -78.17845,59.78353 -14.40965,38.01695 -28.81873,76.03238 -43.22809,114.04858"
       transform="matrix(1.931024,0,0,1.931024,-222.7295,-55.055828)" /><path
       style="opacity:0.975439;fill:none;fill-opacity:1;stroke:#4b4b4b;stroke-width:4.58835;stroke-linecap:butt;stroke-linejoin:round;stroke-dasharray:none;stroke-opacity:0.996078;marker-mid:url(#Triangle-5-4);marker-end:url(#Triangle-5-4);paint-order:markers stroke fill"
       d="m 467.23126,354.10244 c -95.80693,0.76645 -191.61386,1.53291 -287.4208,2.29936"
       id="path29"
       inkscape:path-effect="#path-effect30"
       inkscape:original-d="m 467.23126,354.10244 c -95.80693,0.76645 -191.61386,1.53291 -287.4208,2.29936"
       sodipodi:nodetypes="cc"
       transform="matrix(1.9309523,0.0166356,-0.0166356,1.9309523,-216.77869,-60.303992)" /><path
       style="opacity:0.975439;fill:none;fill-opacity:1;stroke:#e43033;stroke-width:8.24076;stroke-linecap:butt;stroke-linejoin:round;stroke-dasharray:none;stroke-opacity:0.996078;marker-end:url(#Triangle-5-7);paint-order:markers stroke fill"
       d="m 512.52878,69.440868 c 9.96392,9.963922 19.92785,19.927849 29.96851,17.091803 10.04067,-2.836047 20.15768,-18.471425 29.4702,-19.314385 9.31252,-0.842961 17.82,13.106248 25.33857,13.856827 7.51857,0.75058 14.04767,-11.697011 22.80792,-16.912745 8.76026,-5.215734 19.75086,-3.19895 30.74166,-1.182129"
       id="path26-9-1"
       inkscape:path-effect="#path-effect26-5-7"
       inkscape:original-d="m 512.52878,69.440868 c 9.96392,9.963923 19.92785,19.927846 29.89176,29.891763 10.11742,-15.636005 20.23443,-31.271383 30.35164,-46.907076 8.50783,13.949769 17.01531,27.89898 25.52297,41.84847 6.52948,-12.448334 13.05858,-24.895922 19.58806,-37.344254 10.99103,2.016863 21.98163,4.033646 32.97243,6.050468"
       sodipodi:nodetypes="cccccc"
       transform="matrix(0.08097676,-0.85023636,0.94000601,0.08952646,141.47315,1100.174)" /><path
       style="opacity:0.975439;fill:none;fill-opacity:1;stroke:#e43033;stroke-width:8.24076;stroke-linecap:butt;stroke-linejoin:round;stroke-dasharray:none;stroke-opacity:0.996078;marker-end:url(#Triangle-5-4-7);paint-order:markers stroke fill"
       d="m 512.52878,69.440868 c 9.96392,9.963922 19.92785,19.927849 29.96851,17.091803 10.04067,-2.836047 20.15768,-18.471425 29.4702,-19.314385 9.31252,-0.842961 17.82,13.106248 25.33857,13.856827 7.51857,0.75058 14.04767,-11.697011 22.80792,-16.912745 8.76026,-5.215734 19.75086,-3.19895 30.74166,-1.182129"
       id="path26-9-3-5"
       inkscape:path-effect="#path-effect26-5-8-4"
       inkscape:original-d="m 512.52878,69.440868 c 9.96392,9.963923 19.92785,19.927846 29.89176,29.891763 10.11742,-15.636005 20.23443,-31.271383 30.35164,-46.907076 8.50783,13.949769 17.01531,27.89898 25.52297,41.84847 6.52948,-12.448334 13.05858,-24.895922 19.58806,-37.344254 10.99103,2.016863 21.98163,4.033646 32.97243,6.050468"
       sodipodi:nodetypes="cccccc"
       transform="matrix(0.08097676,-0.85023636,0.94000601,0.08952646,180.48098,1125.497)" /><path
       style="opacity:0.975439;fill:none;fill-opacity:1;stroke:#e43033;stroke-width:8.24076;stroke-linecap:butt;stroke-linejoin:round;stroke-dasharray:none;stroke-opacity:0.996078;marker-end:url(#Triangle-5-4-2-7);paint-order:markers stroke fill"
       d="m 512.52878,69.440868 c 9.96392,9.963922 19.92785,19.927849 29.96851,17.091803 10.04067,-2.836047 20.15768,-18.471425 29.4702,-19.314385 9.31252,-0.842961 17.82,13.106248 25.33857,13.856827 7.51857,0.75058 14.04767,-11.697011 22.80792,-16.912745 8.76026,-5.215734 19.75086,-3.19895 30.74166,-1.182129"
       id="path26-9-3-8-5"
       inkscape:path-effect="#path-effect26-5-8-6-8"
       inkscape:original-d="m 512.52878,69.440868 c 9.96392,9.963923 19.92785,19.927846 29.89176,29.891763 10.11742,-15.636005 20.23443,-31.271383 30.35164,-46.907076 8.50783,13.949769 17.01531,27.89898 25.52297,41.84847 6.52948,-12.448334 13.05858,-24.895922 19.58806,-37.344254 10.99103,2.016863 21.98163,4.033646 32.97243,6.050468"
       sodipodi:nodetypes="cccccc"
       transform="matrix(0.08097676,-0.85023636,0.94000601,0.08952646,100.46263,1124.8677)" /><path
       style="opacity:0.975439;fill:none;fill-opacity:1;stroke:#e43033;stroke-width:8.24076;stroke-linecap:butt;stroke-linejoin:round;stroke-dasharray:none;stroke-opacity:0.996078;marker-end:url(#Triangle-5);paint-order:markers stroke fill"
       d="m 512.52878,69.440868 c 9.96392,9.963922 19.92785,19.927849 29.96851,17.091803 10.04067,-2.836047 20.15768,-18.471425 29.4702,-19.314385 9.31252,-0.842961 17.82,13.106248 25.33857,13.856827 7.51857,0.75058 14.04767,-11.697011 22.80792,-16.912745 8.76026,-5.215734 19.75086,-3.19895 30.74166,-1.182129"
       id="path26-9"
       inkscape:path-effect="#path-effect26-5"
       inkscape:original-d="m 512.52878,69.440868 c 9.96392,9.963923 19.92785,19.927846 29.89176,29.891763 10.11742,-15.636005 20.23443,-31.271383 30.35164,-46.907076 8.50783,13.949769 17.01531,27.89898 25.52297,41.84847 6.52948,-12.448334 13.05858,-24.895922 19.58806,-37.344254 10.99103,2.016863 21.98163,4.033646 32.97243,6.050468"
       sodipodi:nodetypes="cccccc"
       transform="matrix(0.08097676,-0.85023636,0.94000601,0.08952646,737.86416,623.35338)" /><path
       style="opacity:0.975439;fill:none;fill-opacity:1;stroke:#e43033;stroke-width:8.24076;stroke-linecap:butt;stroke-linejoin:round;stroke-dasharray:none;stroke-opacity:0.996078;marker-end:url(#Triangle-5-4);paint-order:markers stroke fill"
       d="m 512.52878,69.440868 c 9.96392,9.963922 19.92785,19.927849 29.96851,17.091803 10.04067,-2.836047 20.15768,-18.471425 29.4702,-19.314385 9.31252,-0.842961 17.82,13.106248 25.33857,13.856827 7.51857,0.75058 14.04767,-11.697011 22.80792,-16.912745 8.76026,-5.215734 19.75086,-3.19895 30.74166,-1.182129"
       id="path26-9-3"
       inkscape:path-effect="#path-effect26-5-8"
       inkscape:original-d="m 512.52878,69.440868 c 9.96392,9.963923 19.92785,19.927846 29.89176,29.891763 10.11742,-15.636005 20.23443,-31.271383 30.35164,-46.907076 8.50783,13.949769 17.01531,27.89898 25.52297,41.84847 6.52948,-12.448334 13.05858,-24.895922 19.58806,-37.344254 10.99103,2.016863 21.98163,4.033646 32.97243,6.050468"
       sodipodi:nodetypes="cccccc"
       transform="matrix(0.08097676,-0.85023636,0.94000601,0.08952646,776.87199,648.67644)" /><path
       style="opacity:0.975439;fill:none;fill-opacity:1;stroke:#e43033;stroke-width:8.24076;stroke-linecap:butt;stroke-linejoin:round;stroke-dasharray:none;stroke-opacity:0.996078;marker-end:url(#Triangle-5-4-2);paint-order:markers stroke fill"
       d="m 512.52878,69.440868 c 9.96392,9.963922 19.92785,19.927849 29.96851,17.091803 10.04067,-2.836047 20.15768,-18.471425 29.4702,-19.314385 9.31252,-0.842961 17.82,13.106248 25.33857,13.856827 7.51857,0.75058 14.04767,-11.697011 22.80792,-16.912745 8.76026,-5.215734 19.75086,-3.19895 30.74166,-1.182129"
       id="path26-9-3-8"
       inkscape:path-effect="#path-effect26-5-8-6"
       inkscape:original-d="m 512.52878,69.440868 c 9.96392,9.963923 19.92785,19.927846 29.89176,29.891763 10.11742,-15.636005 20.23443,-31.271383 30.35164,-46.907076 8.50783,13.949769 17.01531,27.89898 25.52297,41.84847 6.52948,-12.448334 13.05858,-24.895922 19.58806,-37.344254 10.99103,2.016863 21.98163,4.033646 32.97243,6.050468"
       sodipodi:nodetypes="cccccc"
       transform="matrix(0.08097676,-0.85023636,0.94000601,0.08952646,696.85363,648.0471)" /><text
       xml:space="preserve"
       id="text33"
       style="font-size:24px;font-family:sans-serif;-inkscape-font-specification:sans-serif;text-align:center;white-space:pre;shape-inside:url(#rect33);opacity:0.975439;fill:#000000;fill-opacity:1;stroke:none;stroke-width:4.58835;stroke-linecap:butt;stroke-linejoin:round;stroke-dasharray:none;stroke-opacity:0.996078;paint-order:markers stroke fill"
       transform="matrix(1.931024,0,0,1.931024,-276.73143,-57.567546)"><tspan
         x="501.35352"
         y="391.95062"
         id="tspan3">A</tspan></text><text
       xml:space="preserve"
       id="text33-8"
       style="font-size:24px;font-family:sans-serif;-inkscape-font-specification:sans-serif;text-align:center;white-space:pre;shape-inside:url(#rect33-0);opacity:0.975439;fill:#000000;fill-opacity:1;stroke:none;stroke-width:4.58835;stroke-linecap:butt;stroke-linejoin:round;stroke-dasharray:none;stroke-opacity:0.996078;paint-order:markers stroke fill"
       transform="matrix(1.1743081,0,0,1.1743081,368.2389,288.46197)"><tspan
         x="490.11035"
         y="391.95062"
         id="tspan4">Sea surface</tspan></text><text
       xml:space="preserve"
       id="text33-8-7"
       style="font-size:24px;font-family:sans-serif;-inkscape-font-specification:sans-serif;text-align:center;white-space:pre;shape-inside:url(#rect33-0-7);opacity:0.975439;fill:#000000;fill-opacity:1;stroke:none;stroke-width:4.58835;stroke-linecap:butt;stroke-linejoin:round;stroke-dasharray:none;stroke-opacity:0.996078;paint-order:markers stroke fill"
       transform="matrix(1.1743081,0,0,1.1743081,364.92695,103.96066)"><tspan
         x="488.1709"
         y="391.95062"
         id="tspan5">Atmosphere</tspan></text><text
       xml:space="preserve"
       id="text33-8-7-2"
       style="font-size:24px;font-family:sans-serif;-inkscape-font-specification:sans-serif;text-align:center;white-space:pre;shape-inside:url(#rect33-0-7-5);opacity:0.975439;fill:#000000;fill-opacity:1;stroke:none;stroke-width:4.58835;stroke-linecap:butt;stroke-linejoin:round;stroke-dasharray:none;stroke-opacity:0.996078;paint-order:markers stroke fill"
       transform="matrix(0.99341435,0,0,0.99341435,-535.31088,-198.40429)"><tspan
         x="555.86328"
         y="391.95062"
         id="tspan6">Tropical cyclone
</tspan><tspan
         x="585.17773"
         y="421.95062"
         id="tspan7">cloud band</tspan></text><text
       xml:space="preserve"
       id="text33-7"
       style="font-size:24px;font-family:sans-serif;-inkscape-font-specification:sans-serif;text-align:center;white-space:pre;shape-inside:url(#rect33-2);opacity:0.975439;fill:#000000;fill-opacity:1;stroke:none;stroke-width:4.58835;stroke-linecap:butt;stroke-linejoin:round;stroke-dasharray:none;stroke-opacity:0.996078;paint-order:markers stroke fill"
       transform="matrix(1.931024,0,0,1.931024,-894.50697,-63.289648)"><tspan
         x="501.33008"
         y="391.95062"
         id="tspan8">B</tspan></text><text
       xml:space="preserve"
       id="text33-7-0"
       style="font-size:24px;font-family:sans-serif;-inkscape-font-specification:sans-serif;text-align:center;white-space:pre;shape-inside:url(#rect33-2-8);opacity:0.975439;fill:#000000;fill-opacity:1;stroke:none;stroke-width:4.58835;stroke-linecap:butt;stroke-linejoin:round;stroke-dasharray:none;stroke-opacity:0.996078;paint-order:markers stroke fill"
       transform="matrix(1.931024,0,0,1.931024,-27.458888,-593.34273)"><tspan
         x="501.17773"
         y="391.95062"
         id="tspan9">C</tspan></text><text
       xml:space="preserve"
       id="text33-7-0-2"
       style="font-size:24px;font-family:sans-serif;-inkscape-font-specification:sans-serif;text-align:center;white-space:pre;shape-inside:url(#rect33-2-8-5);opacity:0.975439;fill:#000000;fill-opacity:1;stroke:none;stroke-width:4.58835;stroke-linecap:butt;stroke-linejoin:round;stroke-dasharray:none;stroke-opacity:0.996078;paint-order:markers stroke fill"
       transform="matrix(1.931024,0,0,1.931024,-24.970764,-411.81352)"><tspan
         x="500.31055"
         y="391.95062"
         id="tspan10">D</tspan></text></g></svg>
